<svg xmlns="http://www.w3.org/2000/svg" viewBox="0 0 500 500">
  <g>
    <path d="M304.5,55.4c-.5-8.9-9.1-5.7-14.6-3.6-48.5,18.9-82.1,52.8-101.7,100.8-4.8,11.7-.9,17.3,11,18.4,19,1.6,37.2,6.4,55.2,12.4,6.9,2.3,13.6,9.8,23.4,2.7-5.9-9.5-14.8-11.6-23-14.6-25.3-9.3-26.1-10.9-9.7-33.1,7.1-9.6,16.3-17.8,24.9-26.3,5.1-5,12.8-7.9,12.8-16.7,11.4,2.4,16.7,9.6,19,21.1s3.4,22.3,21.6,30.9C310.6,114.5,305.9,85.3,304.5,55.4ZM282.4,94.8C256,100,243.3,121,229.7,141c-3.4,5-5.5,10.8-8.8,15.9-4.4,6.6-10.8,4.5-16.3,1.9s-3.6-7.4-1.6-11.6c17.2-35.3,42.9-62.3,78.4-79.6,14-6.8,13.2,4.6,13.4,12.5S285.8,89.1,282.4,94.8Z"/>
    <path d="M303.3,215.9c9.1,27.8,15.1,55.9,19.4,84.4,1.3,8.6,9.3,5.8,14.9,3.6q72.9-28.2,101.9-100.8c4.7-11.8,1.8-16.7-11.3-16.9-22-.3-43.8-3.2-64.5-11.5-4.8-1.9-12.6-7.7-15,.7s7.6,7.5,12.3,10.4c12.2,7.6,29.8,2.6,39,15.3,5.6,7.7,7.2,7.8,12,.2,3.1-5.2,8.9-6.6,13.5-2.1s.1,8.5-1.8,12.2c-17.4,34.3-43.2,60.1-78.1,76.7-3.9,1.9-8.9,5.4-11.8,0s1.2-9.5,6.5-12,12.5-5.8,18.1-9.6c17.6-12.1,34.1-25.3,43.6-46.8-13-2.8-15,5.5-19,10.2a147.7,147.7,0,0,1-38.4,31.6c-10.4,6.1-16.4,4.6-19.6-7.8C321.5,239.6,318.4,224.9,303.3,215.9Z"/>
    <path d="M90.3,450.5c1.5-1.3,4.4-2.9,4.2-3.9a16.1,16.1,0,0,0-3.7-7.5c-20.1-22.6-20.1-22.6,1.8-43.4L328.6,172c4.1-3.9,12.4-8.1,7.2-14.2s-10.4,2.1-14.2,5.7c-31.6,29.4-62.9,59.2-94.3,88.9Q148.9,326.7,70.6,401.1c-6.5,6.2-17.4,12.8-9.4,24.5S76.3,446.6,90.3,450.5Z"/>
    <path d="M282.8,94.7l-.5.5h-.1c0-.2.1-.3.2-.5Z"/>
  </g>
</svg>
