<svg xmlns="http://www.w3.org/2000/svg" viewBox="0 0 500 500">
  <g>
    <path d="M179.7,304c-15.2-.3-25.2,6.9-26.3,22.9s7.1,25.9,24.7,27.8c14.9-1.2,26.1-9.1,25.9-25.4C203.8,315,195.6,304.4,179.7,304Zm.6,42.1c-10.9,1.2-18.2-5-19.1-16.3s6.7-15.2,15.1-17.8c10.7.7,17.8,5.6,18.8,15.7S190.2,345.1,180.3,346.1Z"/>
    <path d="M433,69c-12.5-12.1-25.2-25.5-42.2-7.6-7.8,8.2-15.9,4.7-24.3,2.6-.3,7.4,6.4,17.8,1.2,17.1-20.3-2.8-12.2,12.7-14.8,20.3s-5.1,13.5-10.4,18.9c-36.8,36.6-73.7,73-110.1,110-7.1,7.2-14,8.8-23.5,7C149.8,226.2,97.8,250.2,71.4,302c-17.6,34.5-20.7,70,1,104.4s54.9,45.1,93,39.5c48-7.1,82-35.2,99-80,15.3-40.3,11.2-79.4-22.6-110.7-8.6-7.9-8.8-13.3-.6-21.3Q293.4,182.3,345,130c8.5-8.7,13.9-6.4,21.6,1.1,9.7,9.4,6.3,15.9-1.6,23.7-23.6,23.4-46.9,47.1-70.3,70.7l4.6,4.3c17.4-10.8,31.1-26.1,44.1-41.3,26.2-30.9,63-49.2,89.7-79.4C445.3,95.3,446.9,82.5,433,69ZM251.9,280.3c30.2,49,.7,124.7-58.2,149.2-43.6,18.2-88.5,9-111.2-22.7C56,369.7,62.2,316.7,98.8,278.5c24.9-26.1,55.7-40.1,92.3-36.4,20.5,2.1,21.1,5.4,7.8,21.7a40,40,0,0,0-3.6,5.5c-.3.5,0,1.4,0,4.8,3.8-1.4,6-1.7,7.6-2.9C228.1,251.2,234.6,252.4,251.9,280.3ZM432.4,95.1c-11,14.2-25.1,26-38.1,38.6-1.4,1.4-4,1.5-6.4,2.4a52.9,52.9,0,0,1-25.9-25c-1.8-3.7.4-7.9,5.1-7,8.7,1.8,11-.3,6.9-8.5-.5-1.1-.1-2.8-.1-4.2,18.2.1,14.9-20.1,25.7-27.3s16.5-.2,22.3,5.9S440.9,84.2,432.4,95.1Z"/>
    <path d="M61.6,272c12.2-24.3,26.4-42.4,48.1-54.2s43.6-15.2,71.6-16.2C136.8,181.2,58.7,227.9,61.6,272Z"/>
  </g>
</svg>
