<svg xmlns="http://www.w3.org/2000/svg" viewBox="0 0 500 500">
  <g>
    <path d="M335.5,191.9c-18.2-17.8-34.8-24.8-54.9-22.5C303.1,154.9,320.8,161.1,335.5,191.9Z"/>
    <path d="M359,140c-21,9.9-72-3.1-85.1-21.7-4.7,22.6-44.1,60.9-63.7,61.9,27.3,24.1,27.6,60.3.5,85.5-48,44.5-96.2,88.6-144,133.2-6.8,6.3-19.4,11.4-14.1,23.6,6,13.7,15.3,25.6,38.1,28.3-6.5-6-9.1-8.5-11.8-10.8-22.1-18.9-22.3-19.8-.8-39.7,48.5-45,97.5-89.3,145.5-134.8,12.8-12.1,22.5-15.6,36.9-2.9,7.1,6.3,17.5,11.2,27.7,9.9,14.5-1.9,23.8,4,30.2,19.6,3.2-23.6,42.8-61.9,64.1-65.3C365.5,213.5,351.1,160.1,359,140ZM296.8,264.6c-32.7.5-59.7-26.5-60-60s25.1-60.8,58.4-61.1S355.4,170,356,203,329.3,264.2,296.8,264.6Z"/>
    <path d="M186.9,191.2c-38.2-28.8-17.5-35.1,5.5-41.7,4.2-1.2,6.7-8.1,10.4-12,8.5-8.8,16.1-19.3,26.2-25.6,14.8-9.4,27.9-18.4,29.7-37.8.6-6.2,5.9-14.4,11.9-6.6,19.2,24.9,50.2,20.8,74.3,33,12.5,6.4,24.7,8.4,37.7,4.1,14.7-4.8,21-2.2,15.4,14.5-4.7,13.8-2.3,26.7,4.2,39.9,5,10.2,7.6,21.9,9.2,33.1,2,14,4.2,26.9,16.2,36.7,10.4,8.5,5.3,15.5-5.3,16.8-14.3,1.8-21,10.6-27.4,21.7a94.5,94.5,0,0,1-29.7,31.9c-12.1,8-25.3,14.2-28,30.9-1.3,7.6-6.5,6.8-12,3s-7.1-10.6-16.2-8.4c.8,9.4,8.6,13.7,13.7,19.7,10.1,11.6,18.2,14.4,21.7-4.7,2.6-14.5,10.2-24.4,23.5-31.9a76.7,76.7,0,0,0,25-23.4c11.4-17.3,23.5-31.2,45.4-34.8,14.4-2.4,12-10.5,3.5-19s-20-15.4-19.9-29.7-2.3-26.5-8.4-38c-9.7-18.3-10.4-35.8-2.8-55s-3.4-20-17.6-16.4c-11,2.7-22.1,10.7-33.3,5.5-33-15.7-74.4-15.2-97.8-49.8-.2-.3-1.4,0-2.7,0-11.2,12.3-4.4,36-17.3,42.9-30.9,16.6-43.8,57.1-83.4,61.1-6.1.6-16,3.8-8.6,13.3S165.3,184.9,186.9,191.2Z"/>
  </g>
</svg>
