<svg xmlns="http://www.w3.org/2000/svg" viewBox="0 0 500 500">
  <g>
    <path d="M350,122.6c-24.5-15.2-43-29.3-66.9-30.3-4.2-.2-10-1.7-11.2,4.1s4.2,6.9,8.6,7.2c30.4,2.2,51.5,20.7,72.1,40.4,4,3.8,7.6,11.8,14.1,7.6s1.9-10.7.4-16.4c-18.2-70.6-98.4-104.6-163.4-69-36.4,19.9-55.1,50.6-53.4,92.8,2,46.3,26.4,78.3,66.7,97.3,16.7,7.9,20.9,16.7,19.3,33.8-4.1,43.5-6.8,87.2-9.4,130.9-.5,9.5-3.8,21.1,11.3,25.1s31.3,1.7,40.4-10c-6.4,0-12.3-.6-18.1.1-18.1,2.1-25-3.2-22.7-23.4,4.7-42,5.6-84.4,10-126.5,2.1-19.5-1.5-30.3-21.8-38.4-45.9-18.2-73-66.7-64.1-108s38-68.2,78.6-74.8C287.2,57.4,323.1,74.7,350,122.6Z"/>
    <path d="M334.2,255.9c-26.1,4.1-61.9,35.3-68.8,61.1-4.5,16.5,2.9,24.6,19.3,21.3,25.7-5.1,60.1-43.2,62.8-70C349.7,257.7,345.7,254.1,334.2,255.9Zm-48.2,70c-2.2,1.2-6.2,1.7-8,.4-3.7-2.5-1.9-6.7-.2-9.9,12-21.8,27.4-39.8,56.7-48.2C327.5,299,308.5,314.1,286,325.9Z"/>
    <path d="M139.7,296.1c-7.9.4-9.9,3.6-9.3,11.2,2.3,26.5,40.2,69,65.6,72.9,12.4,1.9,18.1-3.8,18.1-16C213.9,337.9,166.5,294.8,139.7,296.1Zm61.6,70.6c-3.3,3-7,.9-10.2-.8-22-11.8-39.6-27.4-47.2-56.6,29.5,7.5,45,25.3,56.7,47.4C202.1,359.6,204.8,363.5,201.3,366.7Z"/>
    <path d="M193.5,154.8c-11,27.7.5,47.3,17.9,64.4s29.7,20.3,50,13.9C220.8,220.2,195.5,197.3,193.5,154.8Z"/>
  </g>
</svg>
