<svg xmlns="http://www.w3.org/2000/svg" viewBox="0 0 500 500">
  <g>
    <path d="M432.2,376.5C400,343.2,366.8,310.9,334,278c-6.8-6.8-15.7-13.3-13.8-24.7,3.9-24-7.1-30.9-29.3-28.8-14.9,1.4-23.7-11-29.9-21.5s7.9-15.8,13.4-22.9c11.2-14.2,28.1-23.7,37.7-45-15.9,4.9-22.1,15-29.9,22.5-38.3,37.1-37.9,37.1-72.4-3.9-8.1-9.5-8.8-15.2,4.4-19.2,11-3.3,22.1-5.6,33.6-5.3s14.1-6.2,9.6-16.2c-11.9-26.8-31.3-46.3-57.8-58.6-10.3-4.8-17.4-3.3-18.5,10.2-1.6,20.5-12.3,37.1-24.7,52.8-14,17.5-11.7,23.3,16.5,34.9-26.1-29.3,3.5-44.4,13.9-61s20.7,13.8,35.9,9.1c-1-18.8-28.1-16-30.1-36.9,25.2,8.8,39.9,25.3,51.6,45,3.5,6,2.4,9.8-6.4,8.9-17.1-1.6-29.8,9.9-43.9,16.9-8.6,4.2-6.6,10.2-.5,16.2,10.3,10.1,20.5,20.3,30.2,30.9,16.5,17.9,9.5,37.9-15.1,42.9a64.8,64.8,0,0,1-15.9,1c-11.7-.4-17.3,5-15.5,16.5,2.5,17.3-6.6,28.5-18.2,39.2s-24.6,22.9-35.4,35.5c-14.4,16.9-28,27.3-44.9,3.4-.2-.3-2.5,1-4.8,2,1.1,2.6,1.4,6.1,3.3,7.7,16.6,14,10.4,25.5-3.3,36.7-3.6,2.8-6.6,6.3-9.8,9.5-21.6,22-15.3,40.6,23.3,51.9-5.8-6.4-7.5-8.6-9.6-10.5-21.2-19.5-21.3-19.5-.9-40,2.7-2.7,5.8-4.9,8.1-8,9.2-12.4,16.8-10.4,27.4-.2s21.4,24.4,42.2,29.5c-10.9-18.2-26.2-26-37-38.3-4.2-4.8-12.7-9.5-5.7-16.9,19.4-20.5,39.7-40.3,64.6-65.4-2.2,58.8,14.8,106.8,67.9,109.7,60.1,3.2,74.6-49.8,81.2-103.2,30.4,27.5,57.4,56.1,84.8,84.3,25.1,25.9,25.3,25.7,5.1,53.2-.3.3.3,1.3,1.1,3.9,15.4-3.3,24.4-14.5,30.3-27.1S438.2,382.7,432.2,376.5ZM310.1,257.6c-1.7,17.3,0,34.9-.7,52.3-1.2,30.6-22.8,58.4-51.5,68.8-7.9,2.8-14.5,2.1-21.8-1.1-28.1-12.1-43.9-33.8-49.5-63.4a105.7,105.7,0,0,1-1.4-11.3c-4.2-68.3-4.2-68.3,63.8-68.6,12.2,0,24.4,1,36.4-.2C303.7,232.2,312,237.8,310.1,257.6Z"/>
    <path d="M354,159.6c4.4-13,9.5-25,.8-36.3-4.2-5.4-22.4-1.9-36.8,8.9C347.6,121.6,352.3,138.3,354,159.6Z"/>
  </g>
</svg>
