<svg xmlns="http://www.w3.org/2000/svg" viewBox="0 0 500 500">
  <path d="M143.2,413.3c-3.8-12-15.7-11.1-24-14.9-35-16.2-48.8-39.7-41.1-76.1,13.2-63.1,34.6-123.8,57.6-183.8,10-26.1,31-33.2,54.5-18.1,14.1,9.1,17.9,6.9,25.7-7.1,11.8-21.2,42.5-25.7,55.2-7.1s20.5,15.7,38,5.6c36.4-21.1,52.7,33.8,88.1,27.9,8.3-1.4,18.3,12.2,18.5,24.1,1.2,56.2,2.8,112.4,1.7,168.5-.5,25-16.3,32.8-39.1,21.8-10-4.8-14.6-5.3-22.2,4.3-18.7,23.6-33.1,25.5-57.5,7.9-9.7-7-13.4-6.6-21.3,2.6-20.4,23.8-35.6,25.4-57.3,5.2-11.3-10.5-16.9-7.8-26.5.8-17.1,15.6-35.4,12.6-50.9-2.6-9.6-9.3-9.5-22.5-8.1-35.7,2.4-23.8,3.5-47.8,5.2-71.8l-9-.3c-2.6,22.9-5.9,45.8-7.8,68.8-4.2,51.9,25.6,73.9,74.1,53.9,18.9-7.8,27.6,9.2,41.1,13.7,8.3,2.8,5.8,15.6,4.5,24.8-1.5,11.9-17.3,9.3-20.7,24.3,20.3-.3,34.2-9.6,32.8-27.1-1.8-24.2,18.3-40.8,28.7-38.5,35.2,7.9,63.6-8.4,95.1-13.5,36.1-5.8,51.2-10.3,51.3-47.9.1-45.3-1.3-90.7-.7-136,.4-38.6-10.6-59.3-40.9-62.1-28.7-2.6-42.8-43.1-77.1-27.7-1.6.8-3.6.9-5.1,1.8-10.9,7.2-19.1,4.3-28.8-4-21.1-18-44.1-16.8-63.5,2.1-10.1,9.9-18,10.3-30.6,7.1-23.1-5.8-46.1-.8-55.2,22.7-26.1,67.5-52.6,135.3-63.1,207.4C58.7,376.5,99.1,415.5,143.2,413.3Z"/>
  <path d="M283,327.2c2.4,9,5.9,10.8,7.5-.4V238.5C281.7,268.2,279.9,297.7,283,327.2Z"/>
  <path d="M205.6,331.4c2.3,15.6,4.5,4.6,4.5-.1V238.5c-1-18.1-2.2-32.4-4.5.2Z"/>
  <path d="M362.6,238.8c-8.1,30.9-5.7,61.8-1,92.7C368.5,300.6,368.3,269.7,362.6,238.8Z"/>
</svg>
