<svg xmlns="http://www.w3.org/2000/svg" viewBox="0 0 500 500">
  <g>
    <path d="M179.2,179.9l-.7.3.7-.8Z"/>
    <path d="M179.2,179.9c13.3-5.8,19.1-20.8,32.8-26.4s24.7-10.4,40.3-2.4c-39.7,9-66.3,30-69.8,77.8C167.1,207.9,181.2,193.8,179.2,179.9Z"/>
    <path d="M371.3,41.5c-2.6-4.9-5.6-12.6-12.5-8.3s-.7,10.6,1.2,15.7c15,39.5,13,77.8-7.4,115.1-7.3,13.5-11.7,17.5-22.7,1.5-43.9-64.8-118.4-64.5-160.8.6-9.5,14.6-13.6,12.7-20.9-.2C126.6,128,124.6,89,140,48.6c1.9-4.8,7.6-11.4.7-15.4s-9.9,3.7-12.5,8.5C94.5,104.2,74.1,170.1,82.5,242.1c1.4,12.5.4,27.9,19.6,42.4-12.7-63.2-13.6-119.4,13.5-179.9,5.9,37.3,17,65.5,36.4,89.9,5.3,6.7,1.1,14.4,1.2,21.7.4,79.7-13.4,161.4,32.4,234.8,3.8,6,3.8,17.5,12.7,16.2,11.9-1.8,6.1-13.6,6.2-20.7q.8-89.5.1-179.2c-.1-15,3.8-21.9,17.4-10.3,16.7,14.1,31.8,13.5,48.4.1s20.8-5.1,20.6,12.7c-.6,59.8-.3,119.5,0,179.2.1,6.6-4.5,16.8,5.9,18.9,8.3,1.6,9.1-8.3,12.1-13.6,26.6-46.9,44.3-95.9,37.3-151.3-2.1-16.3,2.9-33.9-.9-49.6C332.1,197.6,380,160.8,385.3,111c25.4,54.3,24.3,110.7,13.6,172.6,14-10.8,14.2-19.2,15.8-27.2C429.9,178.7,406.4,108.9,371.3,41.5ZM335,356.3c0,25.5-16.9,44.5-25.9,68.7-8.5-7.6-5.5-16.2-5.5-23.4-.3-49.8,0-99.6-.2-149.4-.1-26.1-3.9-29.6-23.7-14.7C255,256,234.6,255,212,235.5c-13.7-11.8-20-6-19.8,11.2.4,49,.2,97.9,0,146.9-.1,8,2.4,16.5-3.8,26.4-12.4-22.7-24.3-43.3-23.7-69.3.8-40.7-.1-81.4.4-122,.2-18.7,1.5-37.5,14.8-52.7h-.1c25.1-49.7,81.4-61.1,122.2-24.5,21.6,19.3,32.3,44.2,32.8,72.8C335.5,268.4,335,312.4,335,356.3Z"/>
    <path d="M179.2,179.9l-.7.3.7-.8Z"/>
  </g>
</svg>
