<svg xmlns="http://www.w3.org/2000/svg" viewBox="0 0 500 500">
  <g>
    <path d="M69.6,440.4c-18.7-22.8-4.7-35.7,11.5-49.2,20.3-17,39.1-35.8,59.4-52.9,72.4-61,131-132.3,168-220.3,2.2-5.3,2-14,12.4-14.1-2.6,68.2-31.7,125.2-73.8,177.1,58.5-33.7,107.3-183.2,73.5-220.2-2.7,6.8-5.4,12.9-7.8,19.2-30.2,82.5-75.2,155.3-140.2,215-36.8,33.9-74.4,67-111,101C43.1,413.2,45.2,426.9,69.6,440.4Z"/>
    <path d="M179.2,56.7c-18.3,45.3,1.4,147,33.5,173.5-8.5-24.1-17-44.7-22.9-66.1s-11.4-42.7-7.2-71.9c20.5,33.4,31.3,65.5,55.8,89.1C220.5,139.9,197.8,101,179.2,56.7Z"/>
    <path d="M287.6,261.5c2.1,8.7,8.4,13.4,13.4,18.8,37.2,39.9,78.1,76.1,119.6,111.5,16,13.5,30.1,25.8,9,49.9,25.4-11.8,27.5-30.2,8.5-47.3-47.3-42.5-96.2-83.4-139.2-130.5C296.4,261.2,293.8,258.1,287.6,261.5Z"/>
    <path d="M293.1,412.2c-9.6-16.7-24.9-33.1-43.2-32.4s-33.5,16.7-42.5,34.1.9,30.9,20.1,29c15.7-1.5,31.1-5.7,44.3.4C294.4,443.8,303.5,430,293.1,412.2ZM285,429.6c-2.8,4.4-8.2,2.8-14.5,3-13-6-27.7-2.5-42.6-.2-7.4,1.2-14.9-.8-12.4-10.7,3.7-14.3,16-21.4,27.4-28.8s17.3.3,24.3,5.9a126.5,126.5,0,0,1,15.9,16C286.8,419,288,424.7,285,429.6Z"/>
    <path d="M250,365.9c8.6-2,15.4-6.2,16-15.9s-5.2-13.6-13.8-14.2-15.1,2.5-15.9,12S240.9,363,250,365.9Z"/>
    <path d="M221.4,366c-.2-9.4-6.2-14.2-14.4-13.9s-15.6,6.4-15.2,16.1,8.7,14.3,17.4,13.9S221.4,374.5,221.4,366Z"/>
    <path d="M309.5,367.3c-1.6-9.7-7-15.6-16.6-15.1s-13.1,6.4-12.6,15.2,4.9,15.6,15.6,14.1C304.3,380.4,309.7,376.2,309.5,367.3Z"/>
  </g>
</svg>
