<svg xmlns="http://www.w3.org/2000/svg" viewBox="0 0 500 500">
  <g>
    <path d="M356,183.3c-34.7-45.6-67.1-88.6-100-131.2-6.3-8.2-12-2-16.5,3.7C191.7,117.2,145,179.4,113.6,251.4c-12,27.3-16.1,55.8-9.4,84.9,16.7,73.4,79.2,118.9,156.8,115.4,68.9-3.1,126.9-57.5,136.6-128.6,1-7.4,4.1-16.3-4.3-22.3-8.5,4.8-6,12.5-7,18.9-8.2,56.6-39.1,95.5-92.8,114.1-56.2,19.4-106,4.9-145.5-38.4-37.7-41.4-46.6-89.3-23-141.9,29.3-65.3,71.5-122.2,114.1-178.9,9.8-12.9,15.1-7.2,22,2.1,23.2,31.2,46.5,62.3,70.3,93.1C336,175.8,338.5,185.7,356,183.3Z"/>
    <path d="M290.5,284.9c3.6-14.3,7.2-27.1,10.2-40.1,11-48.4-.8-83.7-35.6-104.3-8.1-4.9-18.1-15.1-26.5-7.9s3.3,16,6.2,23.9c17,46.5,3,101.2-33,122.7-1.4-5.3-3-10.3-3.9-15.4-3.4-18.9-14.1-17.4-26.3-9C143,281.5,136.9,342.2,169.3,376c42.7,44.8,115.8,42.7,156.3-4.6,3.3-3.8,8.6-7.3,2-16.2-6.5,5.7-12.9,11.4-19.4,16.9-21.3,18-45.3,28.7-73.6,24.3-32.9-5-59.5-20.8-71.5-53.2-10-26.9-.5-50.8,17.5-71.8,3.4-3.9,6.7-9.3,13-7.3s3.6,7.5,4.6,11.7c4.8,19.8,15,23.3,29.9,8.5,25.7-25.6,36.9-57.3,34.4-93.5-.9-12.6-3.2-25.1-5.2-40.3,18.7,9,27.3,22.4,32.9,38.7,8.2,23.9,0,46.5-4.6,69.6-2.7,14-19.1,32.5-3.6,41.3s27.9-13.1,41.7-21.3c1.3-.8,2.9-1.7,3.4-2.9s2.9-6.2,2-8.2c-2.4-4.9-6-2.1-9.3-.2C310.7,272.8,304.4,282.4,290.5,284.9Z"/>
  </g>
</svg>
