<svg xmlns="http://www.w3.org/2000/svg" viewBox="0 0 500 500">
  <g>
    <path d="M284.8,290.2c-.6,20-17,35.8-36,34.8s-33.5-18-32.4-38.3,16.3-33.9,34.5-33.6S285.5,270.3,284.8,290.2Z"/>
    <path d="M345.8,266.1c-25.1-29.6-58.3-40.2-97.3-41.9-36.2,2.1-70.3,12.4-95.4,43.5-10.2,12.7-10.5,23.8-.7,37.3,41.6,57.4,151.1,58.7,194.6,2.4C358.6,292.4,357.6,280,345.8,266.1Zm-11.9,37c-22.8,23.9-51,33.7-83.4,33.6S190,327.1,167,303.4c-11.5-11.8-10.4-21.7.1-33.6,38.9-44.1,129.6-43.2,167.2,1.6C343.9,283,344.2,292.3,333.9,303.1Z"/>
    <path d="M249.6,97.3c14.4,37.7,9.1,76.2,28.2,108.3-5-56.2-10.8-112-25.8-172.4-15.5,32.7-33.4,159.3-24.9,176.5C239.4,172.9,238.9,136.1,249.6,97.3Z"/>
    <path d="M248.8,434.6c-6.4-18.2-11.7-33.5-17.1-48.7-1.4-4-3.3-7.8-8.5-5.8-3.6,1.4-4,4.6-2.9,8,7.7,24,15.1,48,23.3,71.7,1.9,5.6,8.2,11.4,11.8,2.3,10.5-26,20-52.6,22-81.2C260.7,393.9,263,415.8,248.8,434.6Z"/>
    <path d="M148.4,170c18.3,9.5,27.6,24.5,40.5,35.2,3.1,2.6,6.6,6.2,10.5,2.1s1.1-7.4-2-10.4c-16.1-16.2-32.2-32.5-48.5-48.5-3.2-3.3-6.7-8.6-12.2-5.3s-3.4,8.8-2.6,13.4q5,32.7,10.6,65.2c.8,4.7,2.2,10.9,8.7,9s4-8.1,3.3-12.6C154.4,203,151.5,187.9,148.4,170Z"/>
    <path d="M350.7,237.1c12.7-32.2,16.3-61.3,16.9-90.2.3-10.1-9.7-2.7-13.8,1.2-15.2,14.7-30.1,29.8-44.9,44.9-3.7,3.8-11.2,8.6-6,13.7,6.9,7,10.9-2.5,15.4-6.2,11-9.2,19-22,34.8-30-1.5,12-3,21.4-3.9,30.8S342.2,221.1,350.7,237.1Z"/>
    <path d="M288.2,372.7c10.4,18.3,25,27.3,37.7,38,2.7,2.3,7,1.8,8.1-1.7,4.9-16.8,11.7-33.5,6.6-53.5-14.6,9.6-6,27.6-16.4,31.9C312.1,392.2,307.4,371.3,288.2,372.7Z"/>
    <path d="M161.9,358.8c-6,2.7-4.3,8.3-3.4,12.5,2.9,13.8-1.6,35.2,12.2,38.8s22.6-15.9,33.8-25.1c3-2.6,6.2-6.7,3-10.6-4.6-5.7-9.4-.9-12.2,2.3-17.3,20.1-23.6,11-26.3-9.4C168.5,363.6,167.7,359,161.9,358.8Z"/>
    <path d="M384.1,311.4c-8.8,10.1-2,18.3-.9,26.4s1.1,12.3-9.6,10.6c-8.3-1.2-21.6-13.7-24.4-.4-2.1,10.2,16,9.3,25.2,12.8a72.1,72.1,0,0,0,16.5,3.9c5.9.7,10.1-2.5,8.6-8.4C395.7,341.4,396,324.7,384.1,311.4Z"/>
    <path d="M116.6,349.9c.9-7.6,2-11.6,1.7-15.5-.6-7,10.9-17.3-1.6-20.3-9.3-2.2-8.1,10.6-9.5,16.6-2.3,10.6-12.8,23.1-4.1,31.8s21.2-1.8,31.9-4.1c6.1-1.3,18.6-2,16.2-10.4-3.3-12.3-13.2-.4-20.3-1.1C127.3,346.5,123.3,348.4,116.6,349.9Z"/>
    <path d="M272.4,289.7c-1.9,13.1-8.2,22-21.9,22.3-15.5.2-22.3-10.4-22.1-23.8s7.7-22,21.5-22.1S270.9,276.3,272.4,289.7Z"/>
  </g>
</svg>
