<svg xmlns="http://www.w3.org/2000/svg" viewBox="0 0 500 500">
  <g>
    <path d="M279.7,96.2c-19.8-7.7-29.1-6.6-38.4,4s-8.9,22.5-3.5,34.5c12.6,28.1,52.6,31.4,73.5,6.1,24.1-29.2,11.4-75.6-24.8-90.5C237.7,30.2,178,68.7,176.4,121.7c-1.5,49.3,27.4,81.2,63.1,109.4,42.2,33.1,62.4,49.6,21.1,101.3-2.1,2.7-5.8,6.4-2,10s8.5.3,11.3-3.3c32.3-41.9,35.5-67.5-2-99.8-15.2-13.1-30.7-25.8-45.7-39.1s-26.5-32-31.8-52.7c-13-51.3,25.3-95.6,77.7-89.8,20.2,2.2,34.6,13,40.9,32.5,5.7,17.4,3.3,33.8-10.5,46.9-11.2,10.6-24.4,12.6-38.3,5.4-9.8-5.1-15.4-13.8-14.1-24.5,1.8-16.5,15.8-16.3,28-17.8C275.4,100,276.5,98.5,279.7,96.2Z"/>
    <path d="M192.2,406.3c26.2,20.4,91.3,19.2,118.2,0-21.5-4.7-40.2,5.5-59.4,3.7S211.8,407.5,192.2,406.3Z"/>
    <path d="M295.9,445H204.8C230.5,458.5,264.5,458.4,295.9,445Z"/>
    <path d="M201.4,223.5c-1.1.6-3.9,1.1-4.5,2.6s-.1,5,1.2,6.2q22.7,21,45.9,41.4c1.2,1.1,4.7.7,6.3-.3s1.7-3.8,1.4-5.7C251.2,264.2,205.7,224,201.4,223.5Z"/>
  </g>
</svg>
