<svg xmlns="http://www.w3.org/2000/svg" viewBox="0 0 500 500">
  <g>
    <path d="M391.2,200.7c29.8-68.2,37.3-96.1,36.3-139.9-.1-7.5,3.9-19.2-6.2-21.3s-11.7,9.6-14.5,16.9c-16,40.4-44.4,71.6-74.2,102.1-12.3,12.6-20,13.7-28.8-3.7-12.8-25.2-27.4-49.4-41.5-73.9-3.2-5.4-4.4-14.2-12.6-13.9s-9,9.1-12.2,14.6c-13.8,24.7-28.2,49.1-40.4,74.5-7.8,16.5-14.6,14.3-25.5,3.6-32-31.5-61.7-64.4-77.6-107.6-2.2-6-4.7-14.4-13-12.8s-6.2,9.4-6.1,15.1c.4,43.4,4,86.2,26.7,124.9,8.1,13.8,18.3,27.8-12.7,23.7,7.3,22.1,21.5,37.8,30.7,56s34.8,33.7.6,57.8c37.9-10.8,38.5-12.2,22.5-38.8-10-16.5-20.2-32.9-30.1-49.5-2.1-3.6-6.5-8.1-2.6-11.7s10.1-1.7,14,2.2,8.3,10.4,12.9,15.3c7,7.3,9.8,19.3,27.5,23.4-15.7-23-28.5-41.6-41.1-60.4s-23.9-39.7-29.8-62-9.4-43.4-6.4-66.5c33,65,91,106.4,138.8,157.1-1.1-13-9.8-20.4-17.6-27.9-11.3-10.8-13.5-20.6-4.9-34.7C217,141.2,228.7,117.9,241,95c5.8-10.9,10.8-13.3,17.8-.5,12.4,22.8,25,45.7,38.9,67.6,8.3,13,6.7,21.9-3.3,33.3s-22.3,18-21.5,34.7c47-54.6,110.5-94.2,141.9-162.4,7.3,75-33.1,129.7-74.7,184.3,22.8-5.6,24.5-40.2,57-35.5l-38.5,63.2c-14.9,24.5-10.7,31.9,18.7,33.6-16.1-19.2-16.2-19.2-1.6-42.9l28.2-45.5C416.7,204.2,416.7,204.2,391.2,200.7Z"/>
    <path d="M364.6,371.5c-15.9-1.1-19.9,6.2-25.2,10.7a864.5,864.5,0,0,1-69.3,52.6c-14.4,9.9-27.1,9.5-40.6-.7-21.9-16.7-43.9-33.2-65.8-49.8-6.8-5.1-12.1-12.6-22.8-13.6.6,3.3.2,6.1,1.3,7.2,28.7,27.2,60,51.1,94.4,70.7,7.5,4.3,16.1,5.3,23.7,1.6C298.5,431.4,329.8,403.6,364.6,371.5Z"/>
    <path d="M315,282.2c-.4-13.7-7.9-22.6-22.5-22.2s-20.2,10.2-20.9,24,7.9,23.2,21.4,23.4C308.2,307.6,315.5,296.7,315,282.2Zm-22.1,14.5c-9.2-.2-13-7-12.3-15.1s5.6-11.9,13.3-12.5c7.9,1.8,11.4,7.2,11.2,14.5S300.9,296.8,292.9,296.7Z"/>
    <path d="M210.5,260.1c-13.7-.4-22.4,7.3-22.9,21.8s6.7,25.3,21.6,25.4,21.4-8.9,21.7-23.1S224.9,260.5,210.5,260.1Zm-.2,36.6c-9.2.7-13-6-13-14.1S201,270.2,209,269c7.5.6,12.3,5,13,12.2S218.9,296,210.3,296.7Z"/>
    <path d="M212.2,362c15.3,17.9,67.5,16.3,75.3,0Z"/>
    <path d="M251.5,177.1c8.1-16.1,4.4-32.9,5-49.3.1-3-1.2-6-4.6-6.5s-5.6,2-5.5,5.1C246.8,143.4,242.7,160.8,251.5,177.1Z"/>
    <circle cx="127.7" cy="344.2" r="5"/>
    <circle cx="374.6" cy="344.2" r="5"/>
    <circle cx="251.5" cy="200" r="5"/>
  </g>
</svg>
