<svg xmlns="http://www.w3.org/2000/svg" viewBox="0 0 500 500">
  <g>
    <path d="M316,392.4c20.7-3.1,30.4-23.5,51.9-27.6,33.5-6.5,51.8-29.8,54.2-64.4,4.6-65.4-20.2-121.6-57.4-173.4-.5-.7-3,.2-5.6.4-.4,2.9-1,6.1-1.2,9.3-1.7,30.3,6.3,60.3,1.8,90.9-3.1,21.1-11,26.9-29.7,15.6-22.6-13.6-45.6-17.4-69.1-2.3-7.5,4.9-13.8,4.1-20.9-.6-20.7-13.9-41.3-9.9-62.2.5-26,13.1-32,9.7-34.1-19-2-27,.3-54,2.8-80.9.5-5.5,3.8-12.8-2.9-16s-9.5,4.8-12.4,9.4C110.8,166.5,94,200.4,84.3,237.4c-9,34.2-11.7,68.5,7,100.7,17.8,30.7,56,32.4,79.7,55.5-9.6-16.1-20.2-30.5-38.7-36.3s-30.9-20.1-38-38c-15.7-39.1,4.8-123.8,39.6-156.5,0,21.5-.6,40.5.1,59.6,1.3,37,15.6,45.8,47.7,28.8,20.6-10.8,40.2-12.8,58.9,2.7,8.1,6.8,13.9,6.4,21.9-.3,17.6-14.7,37.8-15.2,56.5-3.5,31.4,19.8,51.6,11,51.9-31.1.1-16.7-3-34,4-55.1,21.1,37.8,35.1,72.9,38,111.2,3.5,47.7-13.2,69.8-58.9,82.9C336.1,363.1,325.2,376.6,316,392.4Z"/>
    <path d="M332.8,59.5c-18.7-27.8-65.3-39.5-114.4-31C191.3,33.3,174.7,44,168,64,223.1,25,277.5,29.7,332.8,59.5Z"/>
    <path d="M242.7,155.4c-2.7-17.4-13.1-29.3-31.9-30.2s-31.5,14.1-31.4,32.2,13.3,31.4,32.3,30.8S245.3,171.9,242.7,155.4Zm-33.1,22.2c-12.4-.4-20.3-9.4-20-21.4s9.1-19.8,21.7-19.4,19.3,8.2,19.7,20.9C229.7,170.8,221.7,177.9,209.6,177.6Z"/>
    <path d="M292.3,125.3c-18.4,1.8-29.2,12.9-30.5,31.2s13.9,32,32,31.6c20.6-.4,30.1-12.2,31.3-28.1C324.7,137.9,310.1,123.6,292.3,125.3Zm-.5,52c-12.6-1.4-19.2-10-17.9-23s9.3-17.8,20.8-17.3c13.2.5,18.9,9.1,20.2,20.9C311.8,170.5,304.6,178.6,291.8,177.3Z"/>
    <path d="M184.5,395.6c37.5-5.4,52-18.3,50.2-45.1C224.3,372.7,203.7,378.4,184.5,395.6Z"/>
    <path d="M253.9,355.2c.3,24.8,19.2,39.5,46.3,37.3C284.7,378.5,262.1,375.7,253.9,355.2Z"/>
    <path d="M228.9,282.6c15.9,23.5,33.8,23.4,53.3-5.7C261.2,290.8,245.3,290,228.9,282.6Z"/>
    <circle cx="175.5" cy="469.9" r="4.3"/>
    <circle cx="307.7" cy="469.9" r="4.3"/>
    <circle cx="157.1" cy="78.3" r="4.3"/>
    <circle cx="341.8" cy="78.3" r="4.3"/>
    <circle cx="175.5" cy="409.3" r="7.5"/>
    <circle cx="175.5" cy="439.5" r="5.7"/>
    <circle cx="307.7" cy="439.5" r="5.7"/>
    <circle cx="307.7" cy="409.3" r="7.5"/>
  </g>
</svg>
