<svg xmlns="http://www.w3.org/2000/svg" viewBox="0 0 500 500">
  <g>
    <path d="M451.6,166.1c-5.2-7.6-13.5-2.4-19.4.9-16.7,9.2-22.8,3.6-27.7-13.9C383.6,78.4,323.3,33,247.8,33.1c-71.7.2-134,48.6-153,122.1-5,19.2-12.1,18.7-25.8,11.8-6.3-3.2-14.5-8.4-19.8-2.1-7,8.4,3,14.5,7.6,19.9,20.2,23.7,41.8,46.1,60.1,71.5,16.4,22.6,26.9,46.3,24.7,75.5-1.2,16.6-4.2,34.4,4.3,53.4,8.9-10.2,6.2-18.5,6.3-26.1.3-36.8,2.5-73.8-.4-110.3-3.8-46.9,21.6-76.6,53.8-103.3,19.2-16,42.3-18.5,65.8-12.1,38.2,10.3,78.4,62.7,78.8,102.3s-.1,79.9.2,119.9c.1,8.6-2.2,18.3,8.9,31.6,0-19.7,1.3-33.2-.3-46.3-4.5-37.9,9.7-68.6,34-96.2,17.4-19.8,34.5-39.8,51.5-60C448.9,179.4,456.5,173.3,451.6,166.1ZM137.1,268.7c-21.4-32.2-44.6-57.5-65.5-84.8C131.7,200.4,146.5,218.7,137.1,268.7Zm209.1-79.8c-57.3-91.9-134.6-91.6-192,.8-4.4,7.1-7.9,22.1-20.1,12.9s-35-9.3-33.7-32.1c3.7-65.7,75-127.4,148.5-129.1,70.7-1.5,144.9,60.9,150.6,126.8.1.8.1,1.6.5,6.7-1.5,16.7-20.6,20.6-34,28.5S350.6,196,346.2,188.9Zm16.7,78c-8.7-46.8,9.3-68.5,70.5-85.7Z"/>
    <path d="M170.9,305c14,36.1,57.4,73.1,80.6,72.1s66.8-38.8,74-62.8c-10.9,9.7-25.2,21.9-39,34.6-28.4,26.1-42.9,26.6-71.4.3C200.9,336.2,187.8,322,170.9,305Z"/>
    <path d="M97.8,279.7c-2.8-31.5-6.1-7.7-6.1.4V452.2c0,5.8,4.3,25.5,6.1-.1Z"/>
    <path d="M409.1,281.6c-2.8-31.4-6.1-7.6-6.1.4V454.2c0,5.8,4.3,25.5,6.1-.2Z"/>
    <path d="M291.5,185.9c-14,2.5-25.8,9.1-26.3,26.8s8.3,29.1,27,29.1c16.6,0,27.3-9,28.2-26S311,188.1,291.5,185.9Zm2.5,47.5c-11.9-1-19.7-7.1-20.3-19.1s6.9-18.2,17.3-19.1c12.3-.9,19.4,7.2,20.2,18.8S304.6,231.1,294,233.4Z"/>
    <path d="M209.5,186.5c-18,1.1-29.7,10.5-29.3,27.9.3,15.4,10.2,26.8,27.1,27.3s27.8-9.7,28.1-27.7S225.7,188.2,209.5,186.5Zm-.7,47c-11.6-1.1-18.2-7.3-18.7-18.3s6.9-19.8,18.7-20.1,17.8,6.7,18.2,18S220.4,231.9,208.8,233.5Z"/>
    <path d="M270.9,309.9c-10.4-6.6-19.4,4.5-28.6-.7-3.9-2.2-10.2-4.9-12.4.8s3.8,9.8,9.3,11C251.7,323.9,263.6,324.2,270.9,309.9Z"/>
    <circle cx="148" cy="403.1" r="4.1"/>
    <circle cx="356.7" cy="403.1" r="4.1"/>
  </g>
</svg>
