<svg xmlns="http://www.w3.org/2000/svg" viewBox="0 0 500 500">
  <g>
    <path d="M143.8,143.1a204.5,204.5,0,0,0-91-50.2c-16.9-4.4-23.2,3.7-18.7,19.9A55.8,55.8,0,0,0,43,130.1c17.9,24.2,31.5,49.6,28.6,81.2-1,10,4.1,16,14.5,14.3a49.4,49.4,0,0,0,30.2-17.4c-5.3-1.4-9.3-.7-12.7,1.1-17.7,9.8-25.8,5.2-24.2-15.4,1.2-16.1-4.4-30.5-12.6-44C60,138.7,52.5,128,46.2,116.6c-4.2-7.7-3.6-16.7,7.9-13.3,28.1,8.5,56.1,18.7,75.9,42.3,7.8,9.3,9.8,18.1-7.6,17.9-7,0-13.1,2.9-15.3,9.9s-2.2,14.6,6,16.1c12.2,2.3,3.7-6.2,4.5-10.4,2-10.6,8.5-7.1,14.5-3.4,4.4,2.8,7.4,10.2,14.4,5.7s3.9-11.6,2.4-17.7-3.8-14.2-5.8-21.2c11.1,1.1,15.1-7.5,20.8-14.4,46.4-55.9,123-56.7,170.1-1.8,6.2,7.3,11,16.7,22.9,15.9-1.4,3.9-3.3,7.7-3.9,11.7-1.2,8.4-9.7,17.1-2.2,25.3,9.1,10,13.6-3.1,20.2-5.5s12.2-1.5,10.3,7.1c-1.2,5.3-3.6,10,4.6,9.2,5.7-.5,7.8-5.4,7.8-10.7-.1-10.1-5.7-15.3-15.2-15.5-22.8-.7-14.6-11.7-6.7-21,16-18.8,38.9-26.5,60.8-35.4,6.5-2.6,14.7-9.1,20.4-2.7s-1.1,15-5.3,21.6c-12.7,19.9-27.5,38.4-27.7,64.1-.3,27.3-1.2,27.3-28.1,17.3-2.8-1.1-6-2.8-8.5,1.1,1.9,7.5,9.2,8.7,14.7,11.5,22.9,11.3,29.8,7.5,29.8-17.3,0-15.9,3-30.9,10.8-44.7s16.5-26.3,24.1-39.8c4-7.1,7.6-15.2.5-22.6s-13.3-4.1-20.6-2c-32.8,9.6-61.9,25.2-86.6,49C308.5,50.7,186,57.5,143.8,143.1Z"/>
    <path d="M150.2,250c3.3,15.9,14.8,26.5,26.7,35.6s15.8,15.3,2.3,27.5c-19.5,17.6-18.3,40.8-10.7,64,2.7-7.4,3.2-15,3.5-22.7,1.7-34,20.6-50.1,53.8-45.7a182,182,0,0,0,48.9-.1c30.9-4.3,50.9,12.8,52.9,44.4.6,8.2-2.3,17.3,5.2,28.9,5.8-27.8,6.9-51.1-12.5-68.7-13.6-12.3-9.6-18.2,2.3-27.7s25.6-19,27.6-39C260.8,322.1,232.2,322.2,150.2,250Z"/>
    <path d="M309.7,347.4c-2.8,3.8-5.1,5.5-5.4,7.5-6.4,35.2-6.4,35.2-42.3,35.1H239.9c-37,0-36.9,0-44.1-35.5-.5-2.2-2.3-4.1-5.1-8.9-14.5,31.1,2.9,55.2,6.4,80.3.7,5.2,7.6,5.5,12.5,5.5,26.2.1,52.4,0,78.6.2,10.9.1,17-4.4,16.9-15.8-.1-7.6,4.1-13.8,6.3-20.6C316.2,380.3,317.7,364.4,309.7,347.4Zm-85,76.5c-9.6-.5-21.2.9-21-13.5.1-12.7,10.5-12.6,19.5-12.3s21.5-2.6,22.2,11.9S234.4,423.3,224.7,423.9ZM295.6,410c-.6,13.9-11.3,13.9-21.3,13.6s-19.1-.5-18.2-13.7c1-15.1,13.3-10.6,21.8-12C286.5,398.6,296,398.1,295.6,410Z"/>
    <path d="M278.3,179.3c-12.5,0-19.4,7.7-19.4,20.2s7.8,18.7,19.2,20.6c12.5-1.2,20.8-7.3,21.4-19.6S291.6,179.3,278.3,179.3Zm.9,33a12.6,12.6,0,1,1,12.6-12.6A12.6,12.6,0,0,1,279.2,212.3Z"/>
    <path d="M222.9,178.8c-12.5,0-20.7,7.1-21.7,18.4-1.2,13,7.5,21.4,20.3,22.3s19.2-7.4,19.7-19.5S235.4,180.5,222.9,178.8Zm-1.8,33.5a12.6,12.6,0,1,1,0-25.2,12.6,12.6,0,1,1,0,25.2Z"/>
    <path d="M276.1,111.8c-36-22.9-88.2-5.7-98.4,35.1C204.1,110.7,236.8,106.9,276.1,111.8Z"/>
    <path d="M287.1,237.8c-24.8,15.1-49.7,16.1-74.5-.2C234.2,266.2,264.8,266.1,287.1,237.8Z"/>
    <circle cx="295.6" cy="119.2" r="5.5"/>
  </g>
</svg>
