<svg xmlns="http://www.w3.org/2000/svg" viewBox="0 0 500 500">
  <path d="M444.2,173.4c-5.3-7.2-14.5-2.8-20.9.9-16.2,9.4-20.4,3.8-24.8-13.2C377.4,80,295.9,31.8,214.5,51.4,154.3,66,117,104.8,99.9,163.8c-2,6.7,1.3,19-13.8,14.2-10.1-3.2-23.3-15.9-30.3-3.6s10.6,19.7,16.9,29.5a31.7,31.7,0,0,0,4.6,5.1c44.1,44.4,80.3,92.2,68,160.7-.9,5.2-2.4,14.6,6.2,14.3s5.9-9.2,5.9-14.8c.2-39.6,1.5-79.3-.3-118.9-2-45.5,23.7-74,57.2-97.2,25.1-17.3,52-14.3,76.9,2.8,21.3,14.6,36.5,34.7,47.2,57.8,7,15.2,13.1,19.7,27.8,7.2s31.9-22.5,52.8-26.7c-14.3,17.2-28.9,34.2-42.9,51.6-11.4,14.3-21.6,29.5-28.4,46.7-1.3,3.4-2.7,7.8,1.3,10.3s7.2-.8,8.7-4.3c17.8-41.6,50.9-71.7,79.2-105.5C441.7,187.3,449.6,180.8,444.2,173.4ZM141.6,267,80.2,192.8C132.4,205.8,150.4,227.5,141.6,267Zm216.5-57c-9.8,6.2-9.7-8-14.6-12.5a9.1,9.1,0,0,1-1.3-1.9c-53.9-86.5-126.7-87.4-182.6-2.8-4.5,6.8-5.7,25.9-20.9,15.3-12.7-9-35.9-10.1-28.6-38.4,16.7-64.3,72.5-110.6,139-111A142.4,142.4,0,0,1,389,170.7c.7,3,1.5,5.9,2.7,10.9C389.3,199.6,370.5,202.1,358.1,210Z"/>
  <path d="M102.4,277.6c-2.3,1.9-4.4,2.8-4.5,3.9C93.1,336,96.6,390.6,96,445.2c0,4,1.5,8.3,6.2,7.7,6.4-.8,4.8-6.7,4.8-10.8.2-45.6.3-91.2,0-136.8C106.9,296.6,109.9,287.2,102.4,277.6Z"/>
  <path d="M238.5,219.5C237,202.8,227.4,193,210.4,193s-27.9,10.3-28.6,28.3c-.5,15.9,12.7,28.1,29.2,27.8S240,235.6,238.5,219.5Zm-28.2,17.8c-10.5-.2-17.3-6.6-16.5-17.6s7.5-16,16.5-15.6,16.5,7,16.8,17.3C225.8,231.9,219.7,237.5,210.3,237.3Z"/>
  <path d="M408.3,376.4c5.2-6.3,11.7-12.7,16.2-20.3,6.1-10.1,5.8-21-4.5-28.3s-20.2-5.8-28.2,4c-3.4,4.1-6.6,10.1-2.3,14.4,6.6,6.6,8.2-1.3,10.9-5.4s8.1-7.5,13-2.8,2.9,10.1-.8,14.4c-6.3,7.5-13.4,14.4-19.8,21.9-3.7,4.4-10.1,9.7-3.9,15.4s17.3,3.2,26.2,3.4c3.8.1,8.5-1.5,8.6-5.7C423.9,377.2,411.3,385,408.3,376.4Z"/>
  <path d="M289,193.2c-17.3.3-26.3,10.6-27.3,27.2a27.3,27.3,0,0,0,28.4,28.8c17.7-.9,27.8-10.3,28.2-30C317.1,202.1,307.1,192.8,289,193.2Zm17.6,29.4c-.7,9.8-7.6,15.1-17.1,14.8s-16.1-6.6-16.2-16,7.2-16,15.8-17.8C301.1,205.8,307.4,211.9,306.6,222.6Z"/>
  <path d="M257.8,374.7c-13.7-8.1-22.9-12.7-31.2-18.7-16.2-11.6-28.6-27.1-41.4-42.1-2.6-3-6.1-6.3-9.6-4.1-5.3,3.3-1.9,7.9.8,11.6a220.8,220.8,0,0,0,39.1,41.1C225.8,370.8,236.4,380.3,257.8,374.7Z"/>
  <path d="M330.8,389.7c1.2-.8,3.1-1.4,3.6-2.5,8.1-18,16.2-36,24-54.1,1.3-2.9.2-6.3-3.4-7-1.7-.3-5,.9-5.7,2.4q-12.4,26.8-24.1,54C323.3,387.1,325.9,389.5,330.8,389.7Z"/>
  <path d="M291.3,328.2c-7.5,19.7-7.3,39.6-.6,59.7C298.7,368.2,296.5,348.2,291.3,328.2Z"/>
  <path d="M270.8,305.7c-10-6.3-18.6,4.3-27.4-.7-3.6-2-9.7-4.6-11.7.8s3.5,9.3,8.8,10.5C252.4,319,263.7,319.4,270.8,305.7Z"/>
  <circle cx="148.6" cy="416.9" r="5.2"/>
</svg>
