<svg xmlns="http://www.w3.org/2000/svg" viewBox="0 0 500 500">
  <g>
    <path d="M455.9,133.4c-14.4,1.2-27.2,7.8-39.8,14s-17.4,3.4-21.9-9.1c-6-16.4-15.5-31.2-26.3-45.1C294.1-2.1,159.6,5.8,107.7,108.5c-6.4,12.5-8.4,30.4-18.3,37.2-12.5,8.6-26.7-7.9-41.2-10-2.5-.3-4.9-1-7.4-1.1-14.4-.6-20.2,6.8-16.9,20.2A58.5,58.5,0,0,0,33.4,175c19.7,26.7,34.6,54.8,30.1,89.7C62.2,274.8,67,282,77.6,279.6c14.8-3.4,29.8-7.8,39.9-22.8-18.2-.8-39.7-20-45.9-39.7-4.8-15.3-14.3-28-22.8-41.3-3.6-5.5-7.4-11.1-10.1-17.1s-.9-10.6,7.7-10.3c32.3,1.3,83.7,41,91.7,71.5,1.1,4.5-1,11.1,6,11.7s8-5.3,10.3-9.5c9.8-18.3,19.3-36.8,29.2-55.1,3.4-6.2,5.9-15.8,15.7-13,33.6,9.8,67.9,2.3,101.7,4.5s44.9,13.7,47.8,48.2c.6,8-2.6,18,11.3,25.5.4-22.7,8.3-39.3,23.8-51.9,17.7-14.4,38.7-22.4,59.5-30.8,5.2-2.1,11.9-6.1,16.4-1.9,6.6,6.2-.3,12.7-3.7,17.4-20.7,28.9-37.4,59.1-32.8,100.5-12.1-5.4-18.7-8.6-25.5-11.3-4.2-1.6-9.2-7.3-13.1-1.5-5.1,7.6,2.8,9.7,7.5,12.4a141.8,141.8,0,0,0,15.6,7.8c22.5,9.7,29.5,5.9,28.2-18-1.4-26.5,6.9-48.8,22.2-69.7,6.3-8.6,12.3-18,16.3-27.9C481.3,140.4,474.2,131.9,455.9,133.4Zm-95.6,48.7c-15.5-35.3-47.7-38.9-78.9-35.4-44,5.1-84-3.5-122.9-22.6-6.4-3.1-12.5-8.6-23.5-3.5,6.7,13.4,19.1,15.1,29.2,19.3,12.1,5.1,14.9,11.1,7.7,22.6S161.7,191.4,152,196c-15.2,7-14.8-17.2-26.7-22.2-26.8-11.4-20.8-29.5-11.1-50.2,27.9-59,71.4-88.5,127.9-85.1,61.5,3.7,125,52.5,142.1,109.3C388.1,160.6,388.1,160.6,360.3,182.1Z"/>
    <path d="M130.2,265.9c3.6,38.7,24,66.1,55.6,84.8,44,25.8,89.1,24.9,132-2.5,29.3-18.6,48.5-45.1,51.2-82.4-23.9,52.4-59.4,90.3-119.4,90.6S155.2,316.5,130.2,265.9Z"/>
    <path d="M202.2,202.9c-17.3.3-28,9.5-28.7,27.2s9.9,30.2,28.1,30.4,29.1-9.7,30.5-29.3C230.5,213.4,221.1,202.7,202.2,202.9Zm.9,45.2c-10.9.2-16.7-7.1-16.7-17.3s6.2-15.8,15.5-15.8,16.6,6.2,16.7,18C217.9,241.9,212.4,247.8,203.1,248.1Z"/>
    <path d="M297.4,202.6c-17.3.8-28.5,9.4-29.4,27.1s10.6,30.2,28.5,31,28.5-10,29.4-27.3S316.6,204.1,297.4,202.6Zm-.9,45.4c-9.5-.1-14.9-6.2-15.4-15.9s5.3-16.4,14.2-17.2,17,5,18.2,16C312.9,241.6,307.1,248.1,296.5,248Z"/>
    <path d="M290.4,392.5c8.9,3.8,12.4,5.9,16.2,6.9,19.1,5.3,40.1,8.2,38.6,36a5.5,5.5,0,0,0,6.7,5.3c4.3-.7,4.2-4.5,4.9-7.6C363.1,405.6,331.4,383.6,290.4,392.5Z"/>
    <path d="M210.7,388.9c-28.3-2.2-48.1,2.3-62.6,19-8.3,9.6-8,22.1-.5,34.8C162.5,416.1,162.5,416.1,210.7,388.9Z"/>
    <path d="M248.9,324.3c6.3-1.1,10.6-1.1,14.3-2.7,6-2.5,14.8-5.6,11.8-13.3s-9.7-.7-14.5,1.1a29.2,29.2,0,0,1-24-1.4c-4.1-2-9.3-6.9-12.2.3-2.1,5.5,3.1,9.2,7.7,11.1S244.5,323,248.9,324.3Z"/>
    <circle cx="148.7" cy="468" r="5.6"/>
    <circle cx="351.8" cy="468" r="5.6"/>
  </g>
</svg>
