<svg xmlns="http://www.w3.org/2000/svg" viewBox="0 0 500 500">
  <g>
    <path d="M271,369.9c-43.9,15.3-87.3,19.5-129.9-1.5S70.9,313.3,61.8,266.7C51.2,211.9,67.9,165.1,110,128.2s92.2-40,145.3-29.5C210.6,63.9,124.1,87,80.1,142.1c-51.1,64-41.2,160.4,21.4,214.7C156.1,404.2,245.7,402.6,271,369.9Z"/>
    <path d="M114.8,298.1c10.9,21.3,21.2,28.2,40.4,24.8,5.5-1,7,1.3,8.3,4,5.1,9.9,14.7,9,23.4,11,34,7.5,61.7-11.6,91.2-22.2,6.3-2.3,14.8-7.8,12-17.6-9.5-4.2-12.7,9.6-21.1,5.3-3.3-7.8,3.4-16.7-4.4-25-22.8,13.7-23.4,51.1-61.9,50.9s-37.5-38.9-61.4-50.8c-7.3,9.3,1.3,19-4,26.8C128.7,306.3,125.6,294.8,114.8,298.1Z"/>
    <path d="M298.7,119.7c-4,7.5.6,10.1,3.5,13.2,46.4,48.7,57.4,104.1,31.6,166.5-1.7,4.2-7.5,10.2.9,13s8.2-5.8,9.9-9.8c24.8-58.6,17.7-113.3-21.4-163.5C316.9,131,311.1,121.6,298.7,119.7Z"/>
    <path d="M269.4,215c-1.7-16.8-12.5-26.2-28.5-25.5s-25.7,11.1-26,28.2c.4,14.4,13.5,27.2,27.7,27S271,230.7,269.4,215ZM243,232.4c-9.6.4-15.4-5-15.7-14.8s5.1-15.8,14.6-16.3,14.8,5.5,16.1,14.9C257.3,225.6,252.6,232,243,232.4Z"/>
    <path d="M198.5,114.4c-26.7-1-50.4,7.3-72.1,22.4a58.2,58.2,0,0,0-18.2,19.7c-1.9,3.4-3.6,7.5.1,10.2s6.8-.6,9.1-3.5c28.4-35.1,65.4-43,107.6-34.5,4,.8,9.2,4.9,10.8-2.2s-4.4-7-8.3-8.8C218.2,113.5,208.2,114.8,198.5,114.4Z"/>
    <path d="M192.5,215.3c-1.3-17-11.6-26.7-27.9-25.8s-25.9,10.9-26.6,28.4c1.9,16.1,10.9,25.9,27.5,26.7S193.7,231.6,192.5,215.3Zm-27.1,17.2c-9.8-.5-15.3-6.7-15-16.2s6.7-15.5,16.2-15,14.6,6.7,15.5,16.3C180,226.4,175.5,233,165.4,232.5Z"/>
    <path d="M430.8,391.4c6.8-8.6,13.5-15.8,18.7-23.9s3.8-16-1.9-23.1-12.4-8.5-20.3-6.8-12.7,7.5-15.3,15.1c-1.3,3.9-1.1,7.5,3.1,9.5s6.1-.2,7.2-3.2c2.6-7.7,7.5-13.1,14.7-7.2,9,7.3-.1,13-4.4,18.6-2.7,3.5-6.3,6.5-9,10.1-4.7,6.4-15.6,11.7-12,20s15.9,4.6,24.3,5c4.3.2,11.1,2.2,12.2-5.7C444.5,393.3,436.4,398,430.8,391.4Z"/>
    <path d="M379.8,338.7c-16.8,16.6-22.9,38.7-31.6,59.3-.6,1.2,1.2,4.5,2.7,5.2s5.3,0,5.9-1.2C367,381.9,378.3,362.2,379.8,338.7Z"/>
    <path d="M314.8,402.5c3.8-21.2,6.2-42.4-1-63.2C308.2,360.5,307.3,381.5,314.8,402.5Z"/>
    <circle cx="263.1" cy="141" r="5.1"/>
  </g>
</svg>
