<svg xmlns="http://www.w3.org/2000/svg" viewBox="0 0 500 500">
  <g>
    <path d="M474,224.8c-3.9-22.5-18-33.1-37.6-22.8S414,200.9,409,187.7c-10.1-27.2-26.1-49.9-50.6-65.8,64.4,94,69.8,168.6,14.7,233.4-50.3,59.2-130.9,75.6-200,40.5C107.3,362.5,72.4,288.1,89,214.6c8.2-36.6,27-67.2,56.5-90.8C192.1,86.5,245,79.5,308.7,96.7,294.4,81,282.3,80.3,271.3,78.9c-79.2-9.8-152,32.4-183.2,106.7-5.7,13.6-10.2,21.8-26.9,14.9-11-4.5-21.4-1-28.7,9.8-18.7,27.9-3.6,69.7,29.4,76.4,12.7,2.6,18.2,7.9,22.6,19.2,28.6,75,87.6,116.7,163.7,116.6s134.9-41.9,164.5-119.3c3.1-8,5-14.6,16.2-16.1C467.5,282.3,480.6,263.2,474,224.8ZM62.8,276c-16.1,1.1-28.8-16.3-27.1-38.7.9-11.9.3-27.3,18-28.8,14.8-1.2,22,12.1,21.9,40C71.2,256.4,84.8,274.4,62.8,276Zm375.4.3c-24.3,1.6-15.6-18-18.7-29.7-3.6-22.7,9.2-35.6,28.2-37.3s18.2,16.7,18.2,29.5C466,257.3,461.4,274.8,438.2,276.3Z"/>
    <path d="M287.2,127c-45.7-30.8-135.4-.8-141,45.5C182.5,125.9,229.6,116.4,287.2,127Z"/>
    <path d="M206.7,199c-18.4-.4-28.8,9.9-29.1,27.9s9.9,26.6,26.8,27.3,28.4-8.4,31-26.4C234.2,209.6,224.7,199.5,206.7,199Zm.9,46.6c-11.9.6-19.6-6.8-20.3-17.7s6.2-19.1,18.1-19.9,17.8,7.1,20.7,18.1C224.5,236.7,219.6,245,207.6,245.6Z"/>
    <path d="M320.7,225.7c-.8-18-12.1-27.5-30.3-26.6s-26.8,10.6-26.8,27.5c-.1,18.5,11.2,27.1,28.2,28.2C310.4,253.2,321.5,243.9,320.7,225.7Zm-29.1,20c-11.4-.7-18.3-8.1-18.4-19s7.2-18.6,19-18.9,19,7.9,19,18.8S304.4,245.1,291.6,245.7Z"/>
    <path d="M302,316.3c-35.5,27.7-71.1,25.1-111.5-4C218.1,354.7,276.8,354.6,302,316.3Z"/>
    <circle cx="320.7" cy="143.5" r="5.7"/>
  </g>
</svg>
