<svg xmlns="http://www.w3.org/2000/svg" viewBox="0 0 500 500">
  <g>
    <path d="M142.8,255.8c-26.9,24-31.1,76.1-13.3,117.9,22.5,52.5,76,82.6,137.1,77.1,52.2-4.6,99.9-47.2,111.7-99.6,9.4-41.5,1.6-80-20.8-93.5,26.2,61.9,19.6,116.9-33.3,158.8-40.5,32.2-87.4,36.5-132.3,10C125.8,387.4,114.9,328.3,142.8,255.8Z"/>
    <path d="M190.7,254.5c-36.1-22.4-72-44.1-78.3-91.9s17-81.7,54.5-114.1C127,57.4,99.2,107,101.7,155.1S145,250.8,190.7,254.5Z"/>
    <path d="M309.8,254c54-8.9,89.3-54.8,88.7-109.8-.6-44.2-27.7-88.1-64.1-95.2,37.7,31.5,60.3,65.8,54.1,112.5S348,232.9,309.8,254Z"/>
    <path d="M135.3,195.7c15.4,3.2,21.1-17.4,33.7-11.4,10.6,5.1,19,14.7,28.6,22,2.4,1.9,5.5,2.8,10.5-4.3-31.7-18.8-51.8-47-58.3-86.4,3.7,21.9-20.3,24.5-24.2,39.5,9.7,6,17.3-15.4,27.6,1.4C167.4,179.5,139.9,180.7,135.3,195.7Z"/>
    <path d="M365.1,195.3c-6.1-14.2-31.6-17.3-18.3-39.2,10.8-17.6,19.1,7,29.8-1-8.3-12.8-26.3-19.4-26.6-39.7-4.5,39.7-27.6,66.6-56.3,90.4,15.4-1.5,24-10.8,33.6-18.9C343.1,173.4,348.4,200.7,365.1,195.3Z"/>
    <path d="M294.1,280.4c-14.9-.9-24.2,8.6-25.1,23.5s6.6,27,23.1,27.7,25.2-8.2,26.9-25.3C318.4,290.9,309.2,281.3,294.1,280.4Zm-.6,40.6c-10.1-.2-15.6-5.6-15.4-15.5s5.7-13.7,14.4-14.3c10.2-.7,14.8,5.4,17.1,13.7C308,314.8,303.8,321.2,293.5,321Z"/>
    <path d="M206.4,280.6c-13.8.1-24.1,9.4-24.2,24.9s8.2,25.2,24.8,26.8c15.6-1.5,25.1-9.7,25.2-26S221.2,280.5,206.4,280.6Zm.5,41.2c-9.2.1-15.6-5.5-15.5-15.3s5.6-15.1,15.4-15.3,14.5,6,16,15C221.7,315.8,216.2,321.7,206.9,321.8Z"/>
    <path d="M201.4,367.7c14.1,22.8,35.5,27.1,59.4,24.3,20.7-2.4,31.3-10,36.1-27.8C264.9,390.3,233.7,390.2,201.4,367.7Z"/>
    <circle cx="159" cy="97.6" r="5.1"/>
    <circle cx="335.2" cy="97.6" r="5.1"/>
  </g>
</svg>
